%
M48
M72
T01C0.02362
T02C0.02400
T03C0.03937
%
T01
X168941Y51256
X191441Y30006
T02
X80907Y46119
X85939Y54556
X85389Y63219
X49013Y56919
X47350Y67519
X143641Y25956
X149391Y19856
X149341Y93756
T03
X48941Y111256
X58941Y111256
X68941Y111256
X78941Y111256
X88941Y111256
X98941Y111256
X108941Y111256
X118941Y111256
X128941Y111256
X138941Y111256
X148941Y111256
X158941Y111256
X168941Y111256
X178941Y111256
X188941Y111256
X198941Y111256
X198941Y11256
X188941Y11256
X178941Y11256
X168941Y11256
X158941Y11256
X148941Y11256
X138941Y11256
X128941Y11256
X118941Y11256
X108941Y11256
X98941Y11256
X88941Y11256
X78941Y11256
X68941Y11256
X58941Y11256
X48941Y11256
X29374Y49907
X29374Y67230
M30
