G75*
%MOIN*%
%OFA0B0*%
%FSLAX25Y25*%
%IPPOS*%
%LPD*%
%AMOC8*
5,1,8,0,0,1.08239X$1,22.5*
%
%ADD10C,0.00000*%
%ADD11R,0.09449X0.07874*%
%ADD12R,0.09087X0.01969*%
%ADD13R,0.15000X0.10000*%
%ADD14R,0.01969X0.07087*%
%ADD15R,0.07087X0.01969*%
%ADD16R,0.04500X0.01500*%
%ADD17C,0.06600*%
%ADD18R,0.04134X0.04252*%
%ADD19R,0.04252X0.04134*%
%ADD20C,0.01000*%
%ADD21C,0.01600*%
%ADD22C,0.03600*%
%ADD23R,0.03562X0.03562*%
D10*
X0008616Y0001000D02*
X0008616Y0123047D01*
X0205467Y0123047D01*
X0205467Y0001000D01*
X0008616Y0001000D01*
X0027405Y0049907D02*
X0027407Y0049995D01*
X0027413Y0050083D01*
X0027423Y0050171D01*
X0027437Y0050259D01*
X0027454Y0050345D01*
X0027476Y0050431D01*
X0027501Y0050515D01*
X0027531Y0050599D01*
X0027563Y0050681D01*
X0027600Y0050761D01*
X0027640Y0050840D01*
X0027684Y0050917D01*
X0027731Y0050992D01*
X0027781Y0051064D01*
X0027835Y0051135D01*
X0027891Y0051202D01*
X0027951Y0051268D01*
X0028013Y0051330D01*
X0028079Y0051390D01*
X0028146Y0051446D01*
X0028217Y0051500D01*
X0028289Y0051550D01*
X0028364Y0051597D01*
X0028441Y0051641D01*
X0028520Y0051681D01*
X0028600Y0051718D01*
X0028682Y0051750D01*
X0028766Y0051780D01*
X0028850Y0051805D01*
X0028936Y0051827D01*
X0029022Y0051844D01*
X0029110Y0051858D01*
X0029198Y0051868D01*
X0029286Y0051874D01*
X0029374Y0051876D01*
X0029462Y0051874D01*
X0029550Y0051868D01*
X0029638Y0051858D01*
X0029726Y0051844D01*
X0029812Y0051827D01*
X0029898Y0051805D01*
X0029982Y0051780D01*
X0030066Y0051750D01*
X0030148Y0051718D01*
X0030228Y0051681D01*
X0030307Y0051641D01*
X0030384Y0051597D01*
X0030459Y0051550D01*
X0030531Y0051500D01*
X0030602Y0051446D01*
X0030669Y0051390D01*
X0030735Y0051330D01*
X0030797Y0051268D01*
X0030857Y0051202D01*
X0030913Y0051135D01*
X0030967Y0051064D01*
X0031017Y0050992D01*
X0031064Y0050917D01*
X0031108Y0050840D01*
X0031148Y0050761D01*
X0031185Y0050681D01*
X0031217Y0050599D01*
X0031247Y0050515D01*
X0031272Y0050431D01*
X0031294Y0050345D01*
X0031311Y0050259D01*
X0031325Y0050171D01*
X0031335Y0050083D01*
X0031341Y0049995D01*
X0031343Y0049907D01*
X0031341Y0049819D01*
X0031335Y0049731D01*
X0031325Y0049643D01*
X0031311Y0049555D01*
X0031294Y0049469D01*
X0031272Y0049383D01*
X0031247Y0049299D01*
X0031217Y0049215D01*
X0031185Y0049133D01*
X0031148Y0049053D01*
X0031108Y0048974D01*
X0031064Y0048897D01*
X0031017Y0048822D01*
X0030967Y0048750D01*
X0030913Y0048679D01*
X0030857Y0048612D01*
X0030797Y0048546D01*
X0030735Y0048484D01*
X0030669Y0048424D01*
X0030602Y0048368D01*
X0030531Y0048314D01*
X0030459Y0048264D01*
X0030384Y0048217D01*
X0030307Y0048173D01*
X0030228Y0048133D01*
X0030148Y0048096D01*
X0030066Y0048064D01*
X0029982Y0048034D01*
X0029898Y0048009D01*
X0029812Y0047987D01*
X0029726Y0047970D01*
X0029638Y0047956D01*
X0029550Y0047946D01*
X0029462Y0047940D01*
X0029374Y0047938D01*
X0029286Y0047940D01*
X0029198Y0047946D01*
X0029110Y0047956D01*
X0029022Y0047970D01*
X0028936Y0047987D01*
X0028850Y0048009D01*
X0028766Y0048034D01*
X0028682Y0048064D01*
X0028600Y0048096D01*
X0028520Y0048133D01*
X0028441Y0048173D01*
X0028364Y0048217D01*
X0028289Y0048264D01*
X0028217Y0048314D01*
X0028146Y0048368D01*
X0028079Y0048424D01*
X0028013Y0048484D01*
X0027951Y0048546D01*
X0027891Y0048612D01*
X0027835Y0048679D01*
X0027781Y0048750D01*
X0027731Y0048822D01*
X0027684Y0048897D01*
X0027640Y0048974D01*
X0027600Y0049053D01*
X0027563Y0049133D01*
X0027531Y0049215D01*
X0027501Y0049299D01*
X0027476Y0049383D01*
X0027454Y0049469D01*
X0027437Y0049555D01*
X0027423Y0049643D01*
X0027413Y0049731D01*
X0027407Y0049819D01*
X0027405Y0049907D01*
X0027405Y0067230D02*
X0027407Y0067318D01*
X0027413Y0067406D01*
X0027423Y0067494D01*
X0027437Y0067582D01*
X0027454Y0067668D01*
X0027476Y0067754D01*
X0027501Y0067838D01*
X0027531Y0067922D01*
X0027563Y0068004D01*
X0027600Y0068084D01*
X0027640Y0068163D01*
X0027684Y0068240D01*
X0027731Y0068315D01*
X0027781Y0068387D01*
X0027835Y0068458D01*
X0027891Y0068525D01*
X0027951Y0068591D01*
X0028013Y0068653D01*
X0028079Y0068713D01*
X0028146Y0068769D01*
X0028217Y0068823D01*
X0028289Y0068873D01*
X0028364Y0068920D01*
X0028441Y0068964D01*
X0028520Y0069004D01*
X0028600Y0069041D01*
X0028682Y0069073D01*
X0028766Y0069103D01*
X0028850Y0069128D01*
X0028936Y0069150D01*
X0029022Y0069167D01*
X0029110Y0069181D01*
X0029198Y0069191D01*
X0029286Y0069197D01*
X0029374Y0069199D01*
X0029462Y0069197D01*
X0029550Y0069191D01*
X0029638Y0069181D01*
X0029726Y0069167D01*
X0029812Y0069150D01*
X0029898Y0069128D01*
X0029982Y0069103D01*
X0030066Y0069073D01*
X0030148Y0069041D01*
X0030228Y0069004D01*
X0030307Y0068964D01*
X0030384Y0068920D01*
X0030459Y0068873D01*
X0030531Y0068823D01*
X0030602Y0068769D01*
X0030669Y0068713D01*
X0030735Y0068653D01*
X0030797Y0068591D01*
X0030857Y0068525D01*
X0030913Y0068458D01*
X0030967Y0068387D01*
X0031017Y0068315D01*
X0031064Y0068240D01*
X0031108Y0068163D01*
X0031148Y0068084D01*
X0031185Y0068004D01*
X0031217Y0067922D01*
X0031247Y0067838D01*
X0031272Y0067754D01*
X0031294Y0067668D01*
X0031311Y0067582D01*
X0031325Y0067494D01*
X0031335Y0067406D01*
X0031341Y0067318D01*
X0031343Y0067230D01*
X0031341Y0067142D01*
X0031335Y0067054D01*
X0031325Y0066966D01*
X0031311Y0066878D01*
X0031294Y0066792D01*
X0031272Y0066706D01*
X0031247Y0066622D01*
X0031217Y0066538D01*
X0031185Y0066456D01*
X0031148Y0066376D01*
X0031108Y0066297D01*
X0031064Y0066220D01*
X0031017Y0066145D01*
X0030967Y0066073D01*
X0030913Y0066002D01*
X0030857Y0065935D01*
X0030797Y0065869D01*
X0030735Y0065807D01*
X0030669Y0065747D01*
X0030602Y0065691D01*
X0030531Y0065637D01*
X0030459Y0065587D01*
X0030384Y0065540D01*
X0030307Y0065496D01*
X0030228Y0065456D01*
X0030148Y0065419D01*
X0030066Y0065387D01*
X0029982Y0065357D01*
X0029898Y0065332D01*
X0029812Y0065310D01*
X0029726Y0065293D01*
X0029638Y0065279D01*
X0029550Y0065269D01*
X0029462Y0065263D01*
X0029374Y0065261D01*
X0029286Y0065263D01*
X0029198Y0065269D01*
X0029110Y0065279D01*
X0029022Y0065293D01*
X0028936Y0065310D01*
X0028850Y0065332D01*
X0028766Y0065357D01*
X0028682Y0065387D01*
X0028600Y0065419D01*
X0028520Y0065456D01*
X0028441Y0065496D01*
X0028364Y0065540D01*
X0028289Y0065587D01*
X0028217Y0065637D01*
X0028146Y0065691D01*
X0028079Y0065747D01*
X0028013Y0065807D01*
X0027951Y0065869D01*
X0027891Y0065935D01*
X0027835Y0066002D01*
X0027781Y0066073D01*
X0027731Y0066145D01*
X0027684Y0066220D01*
X0027640Y0066297D01*
X0027600Y0066376D01*
X0027563Y0066456D01*
X0027531Y0066538D01*
X0027501Y0066622D01*
X0027476Y0066706D01*
X0027454Y0066792D01*
X0027437Y0066878D01*
X0027423Y0066966D01*
X0027413Y0067054D01*
X0027407Y0067142D01*
X0027405Y0067230D01*
D11*
X0039217Y0075892D03*
X0039217Y0041246D03*
D12*
X0041437Y0052270D03*
X0041437Y0055419D03*
X0041437Y0058569D03*
X0041437Y0061719D03*
X0041437Y0064868D03*
D13*
X0017563Y0075892D03*
X0017563Y0041246D03*
D14*
X0114443Y0035134D03*
X0117593Y0035134D03*
X0120742Y0035134D03*
X0123892Y0035134D03*
X0127041Y0035134D03*
X0130191Y0035134D03*
X0133341Y0035134D03*
X0136490Y0035134D03*
X0139640Y0035134D03*
X0142789Y0035134D03*
X0145939Y0035134D03*
X0145939Y0082378D03*
X0142789Y0082378D03*
X0139640Y0082378D03*
X0136490Y0082378D03*
X0133341Y0082378D03*
X0130191Y0082378D03*
X0127041Y0082378D03*
X0123892Y0082378D03*
X0120742Y0082378D03*
X0117593Y0082378D03*
X0114443Y0082378D03*
D15*
X0106569Y0074504D03*
X0106569Y0071354D03*
X0106569Y0068205D03*
X0106569Y0065055D03*
X0106569Y0061906D03*
X0106569Y0058756D03*
X0106569Y0055606D03*
X0106569Y0052457D03*
X0106569Y0049307D03*
X0106569Y0046157D03*
X0106569Y0043008D03*
X0153813Y0043008D03*
X0153813Y0046157D03*
X0153813Y0049307D03*
X0153813Y0052457D03*
X0153813Y0055606D03*
X0153813Y0058756D03*
X0153813Y0061906D03*
X0153813Y0065055D03*
X0153813Y0068205D03*
X0153813Y0071354D03*
X0153813Y0074504D03*
D16*
X0075426Y0066069D03*
X0075426Y0063569D03*
X0075426Y0061069D03*
X0075426Y0058569D03*
X0075426Y0056069D03*
X0075426Y0053569D03*
X0075426Y0051069D03*
X0075426Y0048569D03*
X0075426Y0046069D03*
X0075426Y0043569D03*
X0054326Y0043569D03*
X0054326Y0046069D03*
X0054326Y0048569D03*
X0054326Y0051069D03*
X0054326Y0053569D03*
X0054326Y0056069D03*
X0054326Y0058569D03*
X0054326Y0061069D03*
X0054326Y0063569D03*
X0054326Y0066069D03*
D17*
X0058941Y0111256D03*
X0068941Y0111256D03*
X0078941Y0111256D03*
X0088941Y0111256D03*
X0098941Y0111256D03*
X0108941Y0111256D03*
X0118941Y0111256D03*
X0128941Y0111256D03*
X0138941Y0111256D03*
X0148941Y0111256D03*
X0158941Y0111256D03*
X0168941Y0111256D03*
X0178941Y0111256D03*
X0188941Y0111256D03*
X0198941Y0111256D03*
X0048941Y0111256D03*
X0048941Y0011256D03*
X0058941Y0011256D03*
X0068941Y0011256D03*
X0078941Y0011256D03*
X0088941Y0011256D03*
X0098941Y0011256D03*
X0108941Y0011256D03*
X0118941Y0011256D03*
X0128941Y0011256D03*
X0138941Y0011256D03*
X0148941Y0011256D03*
X0158941Y0011256D03*
X0168941Y0011256D03*
X0178941Y0011256D03*
X0188941Y0011256D03*
X0198941Y0011256D03*
D18*
X0068321Y0079819D03*
X0061431Y0079819D03*
D19*
X0176441Y0058451D03*
X0176441Y0051561D03*
D20*
X0201415Y0051856D01*
X0203591Y0080656D01*
X0203591Y0113956D01*
X0200891Y0116656D01*
X0167591Y0116656D01*
X0163991Y0113056D01*
X0156791Y0120256D01*
X0071291Y0120256D01*
X0064091Y0113056D01*
X0060491Y0116656D01*
X0046991Y0116656D01*
X0042491Y0112156D01*
X0062176Y0080319D01*
X0061431Y0079819D01*
X0052613Y0077730D02*
X0043387Y0083019D01*
X0032587Y0083019D01*
X0029537Y0082469D01*
X0029187Y0072469D01*
X0032937Y0069819D01*
X0033287Y0060419D01*
X0033737Y0058719D01*
X0040687Y0058719D01*
X0041437Y0058569D01*
X0041587Y0061419D02*
X0041437Y0061719D01*
X0041587Y0061419D02*
X0046650Y0061419D01*
X0052387Y0063219D01*
X0054076Y0063219D01*
X0054326Y0063569D01*
X0054076Y0065919D02*
X0054326Y0066069D01*
X0054076Y0065919D02*
X0052613Y0077730D01*
X0047350Y0067519D02*
X0047937Y0066069D01*
X0047937Y0065019D01*
X0041587Y0065019D01*
X0041437Y0064868D01*
X0049013Y0056919D02*
X0050476Y0056919D01*
X0051376Y0056019D01*
X0054076Y0056019D01*
X0054326Y0056069D01*
X0054326Y0053569D02*
X0054976Y0053319D01*
X0057676Y0053319D01*
X0066339Y0040719D01*
X0042717Y0021930D01*
X0044122Y0009556D01*
X0044122Y0005956D01*
X0051491Y0004493D01*
X0123659Y0004493D01*
X0124222Y0005056D01*
X0124222Y0009556D01*
X0124391Y0019230D01*
X0124391Y0034756D01*
X0123892Y0035134D01*
X0124391Y0035656D01*
X0124391Y0044256D01*
X0143291Y0058156D01*
X0139691Y0061756D01*
X0139691Y0081556D01*
X0139640Y0082378D01*
X0136991Y0082456D02*
X0136490Y0082378D01*
X0136991Y0082456D02*
X0136991Y0090556D01*
X0145491Y0099056D01*
X0158591Y0104056D01*
X0163991Y0109456D01*
X0163991Y0113056D01*
X0168491Y0111256D02*
X0168941Y0111256D01*
X0168491Y0111256D02*
X0168491Y0105006D01*
X0145991Y0082456D01*
X0145939Y0082378D01*
X0142789Y0082378D02*
X0142391Y0082456D01*
X0142391Y0086956D01*
X0149341Y0093756D01*
X0147091Y0105856D02*
X0136441Y0096256D01*
X0133391Y0093206D01*
X0133391Y0089656D01*
X0133391Y0082456D01*
X0133341Y0082378D01*
X0130691Y0082456D02*
X0130191Y0082378D01*
X0130691Y0082456D02*
X0130691Y0095756D01*
X0137441Y0102506D01*
X0148941Y0111256D01*
X0147091Y0105856D02*
X0153191Y0105856D01*
X0158591Y0111256D01*
X0158941Y0111256D01*
X0138941Y0111256D02*
X0138791Y0111256D01*
X0127091Y0099556D01*
X0127091Y0082456D01*
X0127041Y0082378D01*
X0124391Y0082456D02*
X0123892Y0082378D01*
X0124391Y0082456D02*
X0124391Y0106756D01*
X0128891Y0111256D01*
X0128941Y0111256D01*
X0119891Y0110356D02*
X0118991Y0111256D01*
X0118941Y0111256D01*
X0119891Y0110356D02*
X0119891Y0082456D01*
X0120742Y0082378D01*
X0117593Y0082378D02*
X0117191Y0082456D01*
X0117191Y0103156D01*
X0109091Y0111256D01*
X0108941Y0111256D01*
X0099191Y0111256D02*
X0098941Y0111256D01*
X0099191Y0111256D02*
X0113591Y0096856D01*
X0113591Y0082456D01*
X0114443Y0082378D01*
X0108941Y0080306D02*
X0112691Y0076256D01*
X0115191Y0073756D01*
X0115191Y0068756D01*
X0111791Y0068606D01*
X0110891Y0068956D01*
X0107291Y0068956D01*
X0106569Y0068205D01*
X0106391Y0065356D02*
X0106569Y0065055D01*
X0106391Y0065356D02*
X0099415Y0065356D01*
X0083328Y0084819D01*
X0079391Y0111256D01*
X0078941Y0111256D01*
X0083891Y0113056D02*
X0080291Y0116656D01*
X0077591Y0116656D01*
X0073991Y0113056D01*
X0073991Y0109456D01*
X0070391Y0105856D01*
X0067691Y0105856D01*
X0064091Y0109456D01*
X0064091Y0113056D01*
X0068941Y0111256D02*
X0069491Y0111256D01*
X0076691Y0118456D01*
X0088391Y0118456D01*
X0093791Y0113056D01*
X0093791Y0104556D01*
X0108041Y0091556D01*
X0108941Y0080306D01*
X0106569Y0074504D02*
X0103891Y0074006D01*
X0103891Y0085506D01*
X0089291Y0101356D01*
X0089291Y0111256D01*
X0088941Y0111256D01*
X0083891Y0113056D02*
X0087828Y0086619D01*
X0099228Y0071656D01*
X0106391Y0071656D01*
X0106569Y0071354D01*
X0106391Y0062656D02*
X0097452Y0062656D01*
X0059591Y0104956D01*
X0059591Y0111256D01*
X0058941Y0111256D01*
X0049691Y0111256D02*
X0048941Y0111256D01*
X0049691Y0111256D02*
X0097639Y0059056D01*
X0106391Y0059056D01*
X0106569Y0058756D01*
X0106569Y0061906D02*
X0106391Y0062656D01*
X0106569Y0055606D02*
X0106391Y0055456D01*
X0095230Y0055456D01*
X0095230Y0052181D01*
X0067239Y0023504D01*
X0048941Y0011256D01*
X0058941Y0011256D02*
X0060322Y0011693D01*
X0062291Y0012256D01*
X0099046Y0051856D01*
X0106391Y0051856D01*
X0106569Y0052457D01*
X0106569Y0049307D02*
X0106391Y0049156D01*
X0100478Y0049156D01*
X0086028Y0025769D01*
X0080122Y0015630D01*
X0078941Y0011256D01*
X0084622Y0013830D02*
X0082991Y0006293D01*
X0076691Y0006293D01*
X0072191Y0006856D01*
X0068941Y0011256D01*
X0084622Y0013830D02*
X0090528Y0026506D01*
X0101891Y0045556D01*
X0106391Y0045556D01*
X0106569Y0046157D01*
X0106569Y0043008D02*
X0103891Y0042856D01*
X0103891Y0036556D01*
X0091991Y0022156D01*
X0090022Y0011693D01*
X0088941Y0011256D01*
X0098941Y0011256D02*
X0099922Y0013661D01*
X0109391Y0038106D01*
X0115191Y0042656D01*
X0116291Y0042656D01*
X0117191Y0039256D01*
X0117191Y0035656D01*
X0117593Y0035134D01*
X0114443Y0035134D02*
X0113591Y0034756D01*
X0111622Y0025304D01*
X0109822Y0017598D01*
X0108941Y0011256D01*
X0118941Y0011256D02*
X0118822Y0017598D01*
X0120791Y0034756D01*
X0120742Y0035134D01*
X0127041Y0035134D02*
X0127091Y0034756D01*
X0127091Y0014356D01*
X0128222Y0011256D01*
X0128722Y0011693D01*
X0128941Y0011256D01*
X0130691Y0017656D02*
X0138622Y0011693D01*
X0138941Y0011256D01*
X0147454Y0011693D02*
X0148941Y0011256D01*
X0147454Y0011693D02*
X0133391Y0019506D01*
X0133391Y0034756D01*
X0133341Y0035134D01*
X0130691Y0034756D02*
X0130191Y0035134D01*
X0130691Y0034756D02*
X0130691Y0017656D01*
X0138791Y0020406D02*
X0138791Y0034756D01*
X0139640Y0035134D01*
X0136991Y0035656D02*
X0136490Y0035134D01*
X0136991Y0035656D02*
X0136991Y0043006D01*
X0137891Y0043906D01*
X0145291Y0043906D01*
X0152291Y0035656D01*
X0153541Y0021756D01*
X0157354Y0011693D01*
X0158941Y0011256D01*
X0154822Y0007924D02*
X0152854Y0015461D01*
X0143459Y0017887D01*
X0139341Y0019856D01*
X0138791Y0020406D01*
X0143641Y0025956D02*
X0142391Y0034756D01*
X0142789Y0035134D01*
X0145939Y0035134D02*
X0145991Y0034756D01*
X0148141Y0031356D01*
X0149391Y0019856D01*
X0156591Y0022356D02*
X0168941Y0011256D01*
X0178941Y0011256D02*
X0179122Y0013661D01*
X0179122Y0024124D01*
X0157691Y0045556D01*
X0154091Y0045556D01*
X0153813Y0046157D01*
X0154091Y0049156D02*
X0153813Y0049307D01*
X0154091Y0049156D02*
X0157691Y0049156D01*
X0189022Y0022106D01*
X0189022Y0011693D01*
X0188941Y0011256D01*
X0156591Y0022356D02*
X0156591Y0042856D01*
X0153813Y0043008D01*
X0153191Y0058156D02*
X0143291Y0058156D01*
X0153191Y0058156D02*
X0153813Y0058756D01*
X0153813Y0068205D02*
X0154091Y0068956D01*
X0173591Y0068956D01*
X0198191Y0108556D01*
X0198191Y0111256D01*
X0198941Y0111256D01*
X0188941Y0111256D02*
X0188291Y0111256D01*
X0188291Y0102256D01*
X0157691Y0071656D01*
X0154091Y0071656D01*
X0153813Y0071354D01*
X0153813Y0074504D02*
X0156591Y0074006D01*
X0156591Y0084456D01*
X0178391Y0111256D01*
X0178941Y0111256D01*
X0090789Y0058856D02*
X0090789Y0052756D01*
X0081065Y0040719D01*
X0066339Y0040719D01*
X0075426Y0046069D02*
X0075676Y0046119D01*
X0080907Y0046119D01*
X0075426Y0048569D02*
X0074776Y0048819D01*
X0068476Y0048819D01*
X0061276Y0056019D01*
X0061126Y0056069D01*
X0067691Y0056019D02*
X0079482Y0056118D01*
X0079482Y0058856D01*
X0090789Y0058856D01*
X0085389Y0063219D02*
X0075676Y0063219D01*
X0075426Y0063569D01*
X0075426Y0056069D02*
X0075676Y0056019D01*
X0067691Y0056019D01*
X0075426Y0051069D02*
X0075676Y0050619D01*
X0085939Y0054556D01*
X0054326Y0053569D02*
X0054076Y0053319D01*
X0046987Y0053319D01*
X0046087Y0052419D01*
X0041587Y0052419D01*
X0041437Y0052270D01*
X0054326Y0043569D02*
X0054976Y0043419D01*
X0036175Y0024622D01*
X0036175Y0006182D01*
X0041196Y0004213D01*
X0048622Y0002693D01*
X0149591Y0002693D01*
X0154822Y0007924D01*
D21*
X0191441Y0030006D02*
X0197504Y0030006D01*
X0198941Y0011256D01*
X0173941Y0041207D02*
X0176441Y0051561D01*
X0176441Y0051207D01*
X0168941Y0051256D02*
X0167691Y0055606D01*
X0153813Y0055606D01*
X0153813Y0052457D02*
X0158941Y0052506D01*
X0173941Y0041207D01*
X0176441Y0058451D02*
X0173941Y0061256D01*
X0165191Y0061256D01*
X0165191Y0058756D01*
X0153813Y0058756D01*
X0075426Y0056069D02*
X0068626Y0056069D01*
X0068626Y0079819D01*
X0068321Y0079819D01*
X0061431Y0079819D02*
X0061126Y0079819D01*
X0061126Y0056069D01*
X0054326Y0056069D01*
D22*
X0049013Y0056919D03*
X0047350Y0067519D03*
X0080907Y0046119D03*
X0085939Y0054556D03*
X0085389Y0063219D03*
X0143641Y0025956D03*
X0149391Y0019856D03*
X0149341Y0093756D03*
D23*
X0168941Y0051256D03*
X0191441Y0030006D03*
M02*
